<?xml version="1.0" encoding="utf-8"?>
<!-- Generator: Adobe Illustrator 24.3.0, SVG Export Plug-In . SVG Version: 6.00 Build 0)  -->
<svg version="1.1" id="Layer_1" xmlns="http://www.w3.org/2000/svg" xmlns:xlink="http://www.w3.org/1999/xlink" x="0px" y="0px"
	 viewBox="0 0 580 500" style="enable-background:new 0 0 580 500;" xml:space="preserve">
<style type="text/css">
	.st0{fill:#004A56;}
	.st1{fill:#69F2F9;}
	.st2{fill:#BEC7D3;}
	.st3{fill:#FFFFFF;}
	.st4{fill:#FF1733;}
</style>
<g>
	<g>
		<path class="st0" d="M366.57,158.36H201.94c-76.83,0-139.1,62.28-139.1,139.1v0c0,76.83,62.28,139.1,139.1,139.1h164.63
			c76.83,0,139.1-62.28,139.1-139.1v0C505.67,220.64,443.4,158.36,366.57,158.36z M462.28,298.11c0,52.51-42.57,95.08-95.08,95.08
			H201.3c-52.51,0-95.08-42.57-95.08-95.08v0c0-52.51,42.57-95.08,95.08-95.08h165.9C419.72,203.03,462.28,245.6,462.28,298.11
			L462.28,298.11z"/>
		<path class="st1" d="M201.94,250.25c-25.37,0-45.94,20.57-45.94,45.94s20.57,45.94,45.94,45.94s45.94-20.57,45.94-45.94
			S227.32,250.25,201.94,250.25z M201.94,320.44c-13.39,0-24.25-10.86-24.25-24.25c0-13.39,10.86-24.25,24.25-24.25
			c13.39,0,24.25,10.86,24.25,24.25C226.19,309.58,215.33,320.44,201.94,320.44z"/>
		<path class="st1" d="M366.57,250.25c-25.37,0-45.94,20.57-45.94,45.94s20.57,45.94,45.94,45.94s45.94-20.57,45.94-45.94
			S391.94,250.25,366.57,250.25z M366.57,320.44c-13.39,0-24.25-10.86-24.25-24.25c0-13.39,10.86-24.25,24.25-24.25
			s24.25,10.86,24.25,24.25C390.82,309.58,379.96,320.44,366.57,320.44z"/>
		<g>
			<circle class="st2" cx="58.37" cy="167.3" r="21.06"/>
			<path class="st2" d="M51.35,193.05v48.27h14.04v-48.27c-2.22,0.68-4.58,1.05-7.02,1.05C55.93,194.1,53.57,193.73,51.35,193.05z"
				/>
			<path class="st2" d="M56.46,297.47c0-17.99,3.33-35.19,9.38-51.05H44.03c-12.17,0-22.03,9.86-22.03,22.03v55.48
				c0,12.17,9.86,22.03,22.03,22.03h20.86C59.44,330.82,56.46,314.49,56.46,297.47L56.46,297.47z"/>
		</g>
		<g>
			<circle class="st2" cx="510.14" cy="167.3" r="21.06"/>
			<path class="st2" d="M503.12,193.05v48.27h14.04v-48.27c-2.22,0.68-4.58,1.05-7.02,1.05C507.7,194.1,505.34,193.73,503.12,193.05
				z"/>
			<path class="st2" d="M520.65,246.42h-17.98c6.06,15.86,9.38,33.06,9.38,51.05v0c0,17.02-2.98,33.35-8.43,48.49h17.03
				c12.17,0,22.03-9.86,22.03-22.03v-55.48C542.68,256.28,532.82,246.42,520.65,246.42z"/>
		</g>
		<rect x="213.43" y="441.68" class="st0" width="141.66" height="39.56"/>
		<path class="st0" d="M284.26,118.16c-23.64,0-44.04,13.82-53.58,33.82h107.17C328.3,131.98,307.89,118.16,284.26,118.16z"/>
		<g>
			<path class="st3" d="M558,78.35c-0.24,31.9-26.2,57.62-58.05,57.62h-0.45l-52.81-0.4c-7.82,16.81-32.53,62.28-82.67,92.98
				c0,0,28.25-43.56,32.75-93.35l-40.12-0.31c-32.07-0.24-57.88-26.44-57.63-58.51c0.24-31.9,26.2-57.62,58.05-57.62h0.45
				l142.86,1.07C532.44,20.08,558.24,46.28,558,78.35z"/>
			<path class="st0" d="M357.5,20.76l142.85,1.07c14.98,0.11,29.01,6.05,39.52,16.72c10.51,10.67,16.24,24.8,16.12,39.77
				c-0.11,14.89-6,28.88-16.58,39.37c-10.57,10.49-24.59,16.27-39.47,16.27l-0.43,0l-52.81-0.4l-1.29-0.01l-0.54,1.17
				c-7.81,16.79-30.29,57.69-74.87,87.61c8.16-14.58,25.34-49.15,28.75-86.96l0.2-2.16l-2.17-0.02l-40.12-0.31
				c-14.98-0.11-29.01-6.05-39.52-16.72c-10.51-10.67-16.24-24.8-16.12-39.77c0.11-14.89,6-28.88,16.58-39.37
				c10.57-10.49,24.59-16.27,39.47-16.27H357.5 M357.51,18.76h-0.45c-31.85,0-57.81,25.72-58.05,57.62
				c-0.24,32.07,25.56,58.27,57.63,58.51l40.12,0.31c-4.49,49.8-32.75,93.35-32.75,93.35c50.14-30.71,74.85-76.18,82.67-92.98
				l52.81,0.4h0.45c31.85,0,57.81-25.72,58.05-57.62c0.24-32.07-25.56-58.27-57.63-58.51L357.51,18.76L357.51,18.76z"/>
		</g>
	</g>
	<g>
		<path class="st4" d="M455.47,89.78c-3.67-0.09-7.34-0.18-11-0.26l-11-0.23l-0.85-0.02l-0.25,0.86l-2.13,7.2l-2.77-7.56
			l-4.19-11.37l-1.85-5.01l-1.38,5.2l-2.59,9.75l-2.57,9.76l-2.56,9.76l-0.47,1.82l-0.14-0.59l-2.03-8.56l-2.04-8.56l-2.06-8.55
			l-2.07-8.55l-2.08-8.55l-2.09-8.55l-2.1-8.54l-1.95-7.93l-2,7.89l-3.68,14.53c-1.22,4.84-2.44,9.69-3.65,14.54l-1.81,7.27
			l-1.8,7.28l-1.79,7.28l-0.78,3.18l-1.26-2.92l-2.95-6.83l-2.97-6.82l-2.98-6.82l-0.88-2.01l-0.7,2.04l-1.77,5.16l-1.64,4.79
			l-4.28,0.12l-4.7,0.14l-4.7,0.15c-1.57,0.05-3.13,0.1-4.7,0.16c1.57,0.06,3.13,0.11,4.7,0.16l4.7,0.15l4.7,0.14l4.7,0.13
			l0.39,0.01l0.16-0.39l2.03-5.06l1.21-3.04l1.91,4.94l2.69,6.94l2.7,6.93l2.71,6.93l1.55,3.94l1.14-4.13l2-7.22l1.99-7.23
			l1.98-7.23l1.97-7.23c1.31-4.82,2.61-9.65,3.91-14.47l1.78-6.65l0.17,0.7l2.03,8.56l2.04,8.56l2.06,8.55l2.07,8.55l2.08,8.55
			l2.09,8.55l2.1,8.54l1.97,8.02l1.98-8l2.43-9.8l2.41-9.8l2.39-9.8l1.13-4.65l2.51,6.29l4.51,11.25l1.54,3.85l1.02-3.97l2.69-10.44
			l10.11-0.21c3.67-0.08,7.34-0.17,11-0.26c3.67-0.09,7.34-0.19,11-0.3c3.67-0.11,7.34-0.22,11-0.36c-3.67-0.14-7.34-0.25-11-0.36
			C462.8,89.97,459.14,89.87,455.47,89.78z"/>
		<path class="st4" d="M508.38,53.49l0-0.2c-0.01-0.27,0-0.53-0.03-0.8c-0.03-0.53-0.09-1.06-0.17-1.59
			c-0.34-2.11-1.12-4.15-2.26-5.96c-1.14-1.81-2.63-3.39-4.36-4.64c-0.86-0.63-1.78-1.17-2.75-1.63c-0.96-0.46-1.97-0.83-2.99-1.11
			c-1.03-0.28-2.08-0.47-3.14-0.56l-0.4-0.03c-0.13-0.01-0.26-0.02-0.4-0.02c-0.27-0.01-0.53-0.02-0.8-0.02l-0.4,0.01
			c-0.13,0-0.27,0-0.4,0.01c-0.27,0.01-0.53,0.02-0.8,0.05c-1.06,0.09-2.12,0.27-3.15,0.54c-1.03,0.28-2.04,0.64-3.01,1.09
			c-0.97,0.45-1.9,1-2.77,1.62c-0.11,0.08-0.22,0.16-0.32,0.24c-0.11,0.08-0.22,0.16-0.32,0.24l-0.31,0.25
			c-0.05,0.04-0.1,0.08-0.16,0.13l-0.15,0.13l-0.3,0.27l-0.29,0.28c-0.2,0.18-0.38,0.38-0.57,0.57c-0.55,0.57-1.05,1.18-1.51,1.83
			c-0.3-0.42-0.63-0.82-0.97-1.21c-0.62-0.71-1.3-1.36-2.03-1.95c-0.73-0.59-1.5-1.13-2.31-1.59c-1.62-0.93-3.38-1.61-5.2-1.99
			c-1.82-0.39-3.68-0.49-5.52-0.32c-0.92,0.09-1.83,0.24-2.73,0.47c-0.9,0.23-1.77,0.53-2.62,0.89c-0.85,0.36-1.67,0.79-2.45,1.28
			c-0.78,0.49-1.52,1.04-2.22,1.65c-0.69,0.61-1.33,1.28-1.91,2c-0.29,0.36-0.56,0.73-0.83,1.11l-0.38,0.58l-0.35,0.6
			c-0.45,0.81-0.83,1.65-1.13,2.53l-0.11,0.33l-0.05,0.16c-0.02,0.05-0.03,0.11-0.05,0.17c-0.06,0.22-0.13,0.44-0.18,0.67
			l-0.15,0.68l-0.02,0.08l-0.01,0.09l-0.03,0.17l-0.06,0.34c-0.14,0.91-0.19,1.83-0.17,2.74c0.02,0.87,0.09,1.75,0.2,2.62
			c0.23,1.74,0.65,3.47,1.28,5.11c0.32,0.82,0.68,1.62,1.09,2.4c0.41,0.77,0.87,1.52,1.37,2.23c0.99,1.42,2.12,2.73,3.33,3.92
			c1.21,1.19,2.49,2.29,3.79,3.33c1.31,1.04,2.64,2.03,3.96,3.01l0.99,0.74l0.99,0.74c0.66,0.5,1.31,1,1.95,1.51
			c1.29,1.02,2.54,2.1,3.73,3.25c-1.02-1.3-2.15-2.52-3.33-3.7c-0.59-0.59-1.19-1.16-1.8-1.72c-0.3-0.28-0.61-0.56-0.91-0.84
			l-0.92-0.84l-1.83-1.66c-0.61-0.55-1.21-1.11-1.81-1.67c-1.19-1.13-2.33-2.28-3.38-3.49c-1.05-1.21-2.01-2.49-2.81-3.84
			c-0.81-1.34-1.45-2.76-1.91-4.24c-0.23-0.74-0.42-1.48-0.56-2.24c-0.14-0.76-0.24-1.52-0.3-2.29c-0.06-0.77-0.08-1.55-0.05-2.32
			c0.02-0.37,0.03-0.74,0.08-1.1l0.03-0.27l0.04-0.27c0.03-0.18,0.05-0.36,0.1-0.54l0.06-0.27l0.03-0.13l0.01-0.07l0.02-0.07
			l0.14-0.53c0.05-0.17,0.11-0.35,0.17-0.52c0.01-0.04,0.03-0.09,0.04-0.13l0.05-0.13l0.1-0.25c0.27-0.68,0.6-1.33,0.98-1.95
			c0.76-1.24,1.75-2.34,2.86-3.26c0.56-0.46,1.17-0.87,1.79-1.24c0.63-0.36,1.28-0.69,1.96-0.95c0.68-0.26,1.38-0.47,2.08-0.63
			c0.71-0.16,1.43-0.26,2.16-0.31c1.45-0.1,2.92,0.02,4.32,0.35c1.41,0.33,2.76,0.87,3.98,1.61c1.23,0.74,2.34,1.66,3.26,2.74
			c0.92,1.08,1.66,2.3,2.17,3.6l1.93,5l2.01-5c0.3-0.74,0.66-1.46,1.1-2.14c0.44-0.67,0.94-1.31,1.5-1.9
			c0.56-0.58,1.17-1.12,1.84-1.59c0.66-0.47,1.37-0.89,2.11-1.24c0.74-0.35,1.51-0.63,2.3-0.85c0.79-0.22,1.6-0.36,2.42-0.44
			c0.2-0.02,0.41-0.03,0.62-0.05c0.1-0.01,0.21-0.01,0.31-0.01l0.31-0.01c0.21,0,0.41,0.01,0.62,0.01c0.1,0,0.21,0.01,0.31,0.01
			l0.31,0.02c0.82,0.06,1.64,0.19,2.43,0.4c0.8,0.2,1.58,0.47,2.32,0.81c0.75,0.34,1.47,0.74,2.14,1.21
			c1.35,0.93,2.53,2.11,3.44,3.48c0.46,0.68,0.85,1.4,1.16,2.16c0.31,0.75,0.55,1.54,0.71,2.34c0.08,0.4,0.14,0.81,0.18,1.22
			c0.03,0.2,0.03,0.41,0.04,0.62l0.01,0.15l0,0.08l0,0.08l0,0.33l0,0.33c0,0.11,0,0.22-0.01,0.33L504.78,55l0,0.16
			c0,0.05-0.01,0.11-0.01,0.16l-0.04,0.65l-0.06,0.65c-0.1,0.86-0.25,1.72-0.46,2.57c-0.21,0.84-0.47,1.68-0.79,2.49
			c-0.63,1.63-1.48,3.19-2.5,4.67c-1.01,1.48-2.18,2.88-3.44,4.21c-0.63,0.67-1.28,1.32-1.95,1.96c-0.67,0.64-1.35,1.27-2.05,1.89
			c-2.78,2.49-5.74,4.85-8.56,7.41c-0.7,0.64-1.4,1.29-2.08,1.96c-0.68,0.67-1.34,1.36-1.98,2.07c-1.27,1.42-2.44,2.93-3.39,4.57
			c1.16-1.49,2.48-2.84,3.87-4.09c0.7-0.63,1.41-1.23,2.14-1.82c0.73-0.59,1.47-1.16,2.22-1.72c3.01-2.25,6.14-4.36,9.16-6.69
			c1.51-1.16,3-2.39,4.42-3.71c1.42-1.32,2.77-2.75,3.98-4.33c0.6-0.79,1.17-1.61,1.69-2.47c0.52-0.86,0.99-1.75,1.4-2.68
			c0.83-1.85,1.41-3.83,1.72-5.84l0.11-0.76l0.08-0.76c0.01-0.06,0.01-0.13,0.02-0.19l0.01-0.19l0.03-0.38
			c0.01-0.13,0.02-0.25,0.02-0.38l0.01-0.38l0.01-0.38l0-0.09L508.38,53.49z"/>
	</g>
</g>
</svg>
